<svg width="21" height="21" viewBox="0 0 21 21" fill="none" xmlns="http://www.w3.org/2000/svg">
<path fill-rule="evenodd" clip-rule="evenodd" d="M13.4535 13.0246C13.6983 13.2515 13.7129 13.6338 13.486 13.8786L10.7668 16.8136C10.6524 16.937 10.4918 17.0072 10.3235 17.0072C10.1553 17.0072 9.99461 16.937 9.88025 16.8136L7.16101 13.8786C6.93419 13.6338 6.94878 13.2515 7.19359 13.0246C7.4384 12.7978 7.82073 12.8124 8.04755 13.0572L10.3235 15.5138L12.5995 13.0572C12.8263 12.8124 13.2086 12.7978 13.4535 13.0246Z" fill="#040038"/>
<path fill-rule="evenodd" clip-rule="evenodd" d="M7.19358 7.76053C6.94877 7.53371 6.93418 7.15139 7.161 6.90657L9.88024 3.97159C9.9946 3.84815 10.1552 3.77799 10.3235 3.77799C10.4918 3.77799 10.6524 3.84815 10.7668 3.97159L13.486 6.90657C13.7128 7.15139 13.6983 7.53371 13.4534 7.76053C13.2086 7.98734 12.8263 7.97276 12.5995 7.72795L10.3235 5.27139L8.04754 7.72794C7.82072 7.97276 7.43839 7.98734 7.19358 7.76053Z" fill="#040038"/>
</svg>
