<svg width="16" height="17" viewBox="0 0 16 17" fill="none" xmlns="http://www.w3.org/2000/svg">
<path d="M6.4 2.49258C3.74903 2.49258 1.6 4.64161 1.6 7.29258C1.6 9.94354 3.74903 12.0926 6.4 12.0926C9.05097 12.0926 11.2 9.94354 11.2 7.29258C11.2 4.64161 9.05097 2.49258 6.4 2.49258ZM0 7.29258C0 3.75796 2.86538 0.892578 6.4 0.892578C9.93462 0.892578 12.8 3.75796 12.8 7.29258C12.8 8.77155 12.2983 10.1333 11.4559 11.2171L15.7657 15.5269C16.0781 15.8393 16.0781 16.3458 15.7657 16.6583C15.4533 16.9707 14.9467 16.9707 14.6343 16.6583L10.3245 12.3485C9.24077 13.1909 7.87897 13.6926 6.4 13.6926C2.86538 13.6926 0 10.8272 0 7.29258Z" fill="#0D0D0D"/>
</svg>